# xmcd CD database generated by RipIT
#
# Track frame offsets:
# 150
# 11490
# 25830
# 36215
# 45302
# 54632
# 65987
# 80540
# 90572
# 105100
# 114195
# 125672
#
# Disc length: 1815 seconds
#
# Revision: 0
# Processed by: cddbd v1.5.2PL0 Copyright (c) Steve Scherf et al.
# Submitted via: RipIT 3.9.0 www.suwald.com/ripit/ripit.html on 2012-01-09 at 01:20
#
DISCID=8f07150c
DTITLE=Country Gospel Messengers - Better Place
DYEAR=2000
DGENRE=Country
TTITLE0=Theree men on the mountain
TTITLE1=I can't picture me
TTITLE2=One more valley
TTITLE3=He's my best friend
TTITLE4=Better Place
TTITLE5=Quiero ver a Jesucristo
TTITLE6=Too old to die young
TTITLE7=I just steal away
TTITLE8=Coffee shop parable
TTITLE9=A day in a saddle
TTITLE10=One day at a time
TTITLE11=Predicando con gozo
EXTD=
EXTT0=
EXTT1=
EXTT2=
EXTT3=
EXTT4=
EXTT5=
EXTT6=
EXTT7=
EXTT8=
EXTT9=
EXTT10=
EXTT11=
PLAYORDER=
